<mxfile host="65bd71144e">
    <diagram id="lqzyA9suaGtt-qeXpVMr" name="第 1 页">
        <mxGraphModel dx="1480" dy="1133" grid="1" gridSize="10" guides="1" tooltips="1" connect="1" arrows="1" fold="1" page="1" pageScale="1" pageWidth="827" pageHeight="1169" math="0" shadow="0">
            <root>
                <mxCell id="0"/>
                <mxCell id="1" parent="0"/>
                <mxCell id="4" value="" style="edgeStyle=none;html=1;fontFamily=Helvetica;fontSize=12;fontColor=#FFFFFF;sketch=1;" edge="1" parent="1" source="2" target="3">
                    <mxGeometry relative="1" as="geometry"/>
                </mxCell>
                <mxCell id="2" value="validateSchema" style="rounded=1;whiteSpace=wrap;html=1;arcSize=11;sketch=1;" vertex="1" parent="1">
                    <mxGeometry x="95" y="150" width="240" height="60" as="geometry"/>
                </mxCell>
                <mxCell id="40" style="edgeStyle=none;sketch=1;html=1;entryX=-0.002;entryY=0.421;entryDx=0;entryDy=0;entryPerimeter=0;fontFamily=Helvetica;fontSize=12;fontColor=#FFFFFF;startArrow=none;startFill=0;endArrow=classic;endFill=1;" edge="1" parent="1" source="3" target="37">
                    <mxGeometry relative="1" as="geometry">
                        <Array as="points">
                            <mxPoint x="215" y="463"/>
                        </Array>
                    </mxGeometry>
                </mxCell>
                <mxCell id="3" value="createCompiler" style="rounded=1;whiteSpace=wrap;html=1;arcSize=11;sketch=1;" vertex="1" parent="1">
                    <mxGeometry x="95" y="270" width="240" height="60" as="geometry"/>
                </mxCell>
                <mxCell id="39" value="" style="group" vertex="1" connectable="0" parent="1">
                    <mxGeometry x="450" y="50" width="860" height="980" as="geometry"/>
                </mxCell>
                <mxCell id="37" value="" style="rounded=0;whiteSpace=wrap;html=1;labelBackgroundColor=#000000;sketch=1;fontFamily=Helvetica;fontSize=12;fontColor=#FFFFFF;strokeColor=default;fillColor=default;dashed=1;" vertex="1" parent="39">
                    <mxGeometry width="860" height="980" as="geometry"/>
                </mxCell>
                <mxCell id="5" value="getNormalizedWebpackOptions" style="rounded=1;whiteSpace=wrap;html=1;arcSize=11;sketch=1;" vertex="1" parent="39">
                    <mxGeometry x="224.77272727272725" y="70" width="215" height="60" as="geometry"/>
                </mxCell>
                <mxCell id="6" value="applyWebpackOptionsBaseDefaults" style="rounded=1;whiteSpace=wrap;html=1;arcSize=11;sketch=1;" vertex="1" parent="39">
                    <mxGeometry x="224.77272727272725" y="180" width="215" height="60" as="geometry"/>
                </mxCell>
                <mxCell id="11" value="" style="edgeStyle=none;html=1;fontFamily=Helvetica;fontSize=12;fontColor=#FFFFFF;sketch=1;" edge="1" parent="39" source="5" target="6">
                    <mxGeometry relative="1" as="geometry"/>
                </mxCell>
                <mxCell id="7" value="new Compiler" style="rounded=1;whiteSpace=wrap;html=1;arcSize=11;sketch=1;" vertex="1" parent="39">
                    <mxGeometry x="224.77272727272725" y="290" width="215" height="60" as="geometry"/>
                </mxCell>
                <mxCell id="12" value="" style="edgeStyle=none;html=1;fontFamily=Helvetica;fontSize=12;fontColor=#FFFFFF;sketch=1;" edge="1" parent="39" source="6" target="7">
                    <mxGeometry relative="1" as="geometry"/>
                </mxCell>
                <mxCell id="9" value="&lt;span&gt;hooks初始化&lt;/span&gt;" style="whiteSpace=wrap;html=1;rounded=1;arcSize=11;sketch=1;" vertex="1" parent="39">
                    <mxGeometry x="527.7272727272726" y="290" width="117.27272727272727" height="60" as="geometry"/>
                </mxCell>
                <mxCell id="10" value="" style="edgeStyle=none;html=1;fontFamily=Helvetica;fontSize=12;fontColor=#FFFFFF;sketch=1;" edge="1" parent="39" source="7" target="9">
                    <mxGeometry relative="1" as="geometry"/>
                </mxCell>
                <mxCell id="13" value="new NodeEnvironmentPlugin().apply" style="rounded=1;whiteSpace=wrap;html=1;arcSize=11;sketch=1;" vertex="1" parent="39">
                    <mxGeometry x="224.77272727272725" y="400" width="215" height="60" as="geometry"/>
                </mxCell>
                <mxCell id="15" value="" style="edgeStyle=none;html=1;fontFamily=Helvetica;fontSize=12;fontColor=#FFFFFF;sketch=1;" edge="1" parent="39" source="7" target="13">
                    <mxGeometry relative="1" as="geometry"/>
                </mxCell>
                <mxCell id="16" value="设置compiler对象的ConsoleLogger、inputFileSystem等值" style="whiteSpace=wrap;html=1;rounded=1;arcSize=11;sketch=1;" vertex="1" parent="39">
                    <mxGeometry x="527.7272727272726" y="400" width="166.13636363636365" height="60" as="geometry"/>
                </mxCell>
                <mxCell id="17" value="" style="edgeStyle=none;html=1;fontFamily=Helvetica;fontSize=12;fontColor=#FFFFFF;sketch=1;" edge="1" parent="39" source="13" target="16">
                    <mxGeometry relative="1" as="geometry"/>
                </mxCell>
                <mxCell id="18" value="执行plugins的apply方法进行插件初始化" style="rounded=1;whiteSpace=wrap;html=1;arcSize=11;sketch=1;" vertex="1" parent="39">
                    <mxGeometry x="224.77272727272725" y="510" width="215" height="60" as="geometry"/>
                </mxCell>
                <mxCell id="19" value="" style="edgeStyle=none;html=1;fontFamily=Helvetica;fontSize=12;fontColor=#FFFFFF;sketch=1;" edge="1" parent="39" source="13" target="18">
                    <mxGeometry relative="1" as="geometry"/>
                </mxCell>
                <mxCell id="20" value="&lt;div style=&quot;color: rgb(212 , 212 , 212) ; background-color: rgb(30 , 30 , 30) ; font-family: &amp;#34;menlo&amp;#34; , &amp;#34;monaco&amp;#34; , &amp;#34;courier new&amp;#34; , monospace ; line-height: 18px&quot;&gt;&lt;span style=&quot;color: #dcdcaa&quot;&gt;applyWebpackOptionsDefaults&lt;/span&gt;&lt;/div&gt;" style="rounded=1;whiteSpace=wrap;html=1;arcSize=11;sketch=1;" vertex="1" parent="39">
                    <mxGeometry x="224.77272727272725" y="610" width="215" height="60" as="geometry"/>
                </mxCell>
                <mxCell id="21" value="" style="edgeStyle=none;html=1;fontFamily=Helvetica;fontSize=12;fontColor=#FFFFFF;sketch=1;" edge="1" parent="39" source="18" target="20">
                    <mxGeometry relative="1" as="geometry"/>
                </mxCell>
                <mxCell id="23" value="&lt;div style=&quot;color: rgb(212 , 212 , 212) ; background-color: rgb(30 , 30 , 30) ; font-family: &amp;#34;menlo&amp;#34; , &amp;#34;monaco&amp;#34; , &amp;#34;courier new&amp;#34; , monospace ; line-height: 18px&quot;&gt;&lt;div style=&quot;font-family: &amp;#34;menlo&amp;#34; , &amp;#34;monaco&amp;#34; , &amp;#34;courier new&amp;#34; , monospace ; line-height: 18px&quot;&gt;&lt;span style=&quot;color: #4ec9b0&quot;&gt;new WebpackOptionsApply().process&lt;/span&gt;&lt;/div&gt;&lt;/div&gt;" style="rounded=1;whiteSpace=wrap;html=1;arcSize=11;sketch=1;" vertex="1" parent="39">
                    <mxGeometry x="210.11363636363637" y="720" width="244.3181818181818" height="70" as="geometry"/>
                </mxCell>
                <mxCell id="24" value="" style="edgeStyle=none;html=1;fontFamily=Helvetica;fontSize=12;fontColor=#FFFFFF;sketch=1;" edge="1" parent="39" source="20" target="23">
                    <mxGeometry relative="1" as="geometry">
                        <Array as="points">
                            <mxPoint x="332.2727272727273" y="690"/>
                        </Array>
                    </mxGeometry>
                </mxCell>
                <mxCell id="30" value="" style="edgeStyle=none;html=1;fontFamily=Helvetica;fontSize=12;fontColor=#FFFFFF;startArrow=classic;startFill=0;endArrow=none;endFill=0;exitX=0;exitY=0.25;exitDx=0;exitDy=0;dashed=1;sketch=1;" edge="1" parent="39" source="25">
                    <mxGeometry relative="1" as="geometry">
                        <mxPoint x="332.2727272727273" y="693" as="targetPoint"/>
                        <Array as="points"/>
                    </mxGeometry>
                </mxCell>
                <mxCell id="25" value="&lt;div style=&quot;color: rgb(212 , 212 , 212) ; background-color: rgb(30 , 30 , 30) ; font-family: &amp;#34;menlo&amp;#34; , &amp;#34;monaco&amp;#34; , &amp;#34;courier new&amp;#34; , monospace ; line-height: 18px&quot;&gt;&lt;div style=&quot;font-family: &amp;#34;menlo&amp;#34; , &amp;#34;monaco&amp;#34; , &amp;#34;courier new&amp;#34; , monospace ; line-height: 18px&quot;&gt;&lt;span style=&quot;color: #4fc1ff&quot;&gt;compiler&lt;/span&gt;.&lt;span style=&quot;color: #9cdcfe&quot;&gt;hooks&lt;/span&gt;.&lt;span style=&quot;color: #9cdcfe&quot;&gt;environment&lt;/span&gt;.&lt;span style=&quot;color: #dcdcaa&quot;&gt;call&lt;/span&gt;()&lt;/div&gt;&lt;/div&gt;" style="whiteSpace=wrap;html=1;rounded=1;arcSize=11;sketch=1;" vertex="1" parent="39">
                    <mxGeometry x="537.5" y="680" width="283.4090909090909" height="50" as="geometry"/>
                </mxCell>
                <mxCell id="26" value="&lt;div style=&quot;color: rgb(212 , 212 , 212) ; background-color: rgb(30 , 30 , 30) ; font-family: &amp;#34;menlo&amp;#34; , &amp;#34;monaco&amp;#34; , &amp;#34;courier new&amp;#34; , monospace ; line-height: 18px&quot;&gt;&lt;div style=&quot;font-family: &amp;#34;menlo&amp;#34; , &amp;#34;monaco&amp;#34; , &amp;#34;courier new&amp;#34; , monospace ; line-height: 18px&quot;&gt;&lt;span style=&quot;color: #4fc1ff&quot;&gt;compiler&lt;/span&gt;.&lt;span style=&quot;color: #9cdcfe&quot;&gt;hooks&lt;/span&gt;.&lt;span style=&quot;color: #9cdcfe&quot;&gt;afterEnvironment&lt;/span&gt;.&lt;span style=&quot;color: #dcdcaa&quot;&gt;call&lt;/span&gt;()&lt;/div&gt;&lt;/div&gt;" style="whiteSpace=wrap;html=1;rounded=1;arcSize=11;sketch=1;" vertex="1" parent="39">
                    <mxGeometry x="537.5" y="760" width="283.4090909090909" height="50" as="geometry"/>
                </mxCell>
                <mxCell id="28" value="" style="edgeStyle=none;html=1;fontFamily=Helvetica;fontSize=12;fontColor=#FFFFFF;sketch=1;" edge="1" parent="39" source="25" target="26">
                    <mxGeometry relative="1" as="geometry"/>
                </mxCell>
                <mxCell id="27" value="&lt;div style=&quot;color: rgb(212 , 212 , 212) ; background-color: rgb(30 , 30 , 30) ; font-family: &amp;#34;menlo&amp;#34; , &amp;#34;monaco&amp;#34; , &amp;#34;courier new&amp;#34; , monospace ; line-height: 18px&quot;&gt;&lt;div style=&quot;font-family: &amp;#34;menlo&amp;#34; , &amp;#34;monaco&amp;#34; , &amp;#34;courier new&amp;#34; , monospace ; line-height: 18px&quot;&gt;&lt;div style=&quot;font-family: &amp;#34;menlo&amp;#34; , &amp;#34;monaco&amp;#34; , &amp;#34;courier new&amp;#34; , monospace ; line-height: 18px&quot;&gt;&lt;span style=&quot;color: #4fc1ff&quot;&gt;compiler&lt;/span&gt;.&lt;span style=&quot;color: #9cdcfe&quot;&gt;hooks&lt;/span&gt;.&lt;span style=&quot;color: #9cdcfe&quot;&gt;initialize&lt;/span&gt;.&lt;span style=&quot;color: #dcdcaa&quot;&gt;call&lt;/span&gt;()&lt;/div&gt;&lt;/div&gt;&lt;/div&gt;" style="whiteSpace=wrap;html=1;rounded=1;arcSize=11;sketch=1;" vertex="1" parent="39">
                    <mxGeometry x="537.5" y="850" width="283.4090909090909" height="50" as="geometry"/>
                </mxCell>
                <mxCell id="31" style="edgeStyle=none;html=1;fontFamily=Helvetica;fontSize=12;fontColor=#FFFFFF;startArrow=none;startFill=0;endArrow=classic;endFill=1;entryX=0;entryY=0.5;entryDx=0;entryDy=0;dashed=1;sketch=1;" edge="1" parent="39" source="23" target="27">
                    <mxGeometry relative="1" as="geometry">
                        <mxPoint x="332.2727272727273" y="880" as="targetPoint"/>
                        <Array as="points">
                            <mxPoint x="332.2727272727273" y="875"/>
                        </Array>
                    </mxGeometry>
                </mxCell>
                <mxCell id="29" value="" style="edgeStyle=none;html=1;fontFamily=Helvetica;fontSize=12;fontColor=#FFFFFF;sketch=1;" edge="1" parent="39" source="26" target="27">
                    <mxGeometry relative="1" as="geometry"/>
                </mxCell>
                <mxCell id="32" value="&lt;div style=&quot;background-color: rgb(30 , 30 , 30) ; font-family: &amp;#34;menlo&amp;#34; , &amp;#34;monaco&amp;#34; , &amp;#34;courier new&amp;#34; , monospace ; line-height: 18px&quot;&gt;&lt;font color=&quot;#dcdcaa&quot;&gt;应用各种内置插件&lt;/font&gt;&lt;/div&gt;" style="rounded=1;whiteSpace=wrap;html=1;arcSize=11;sketch=1;" vertex="1" parent="39">
                    <mxGeometry x="19.545454545454547" y="732.5" width="156.36363636363637" height="45" as="geometry"/>
                </mxCell>
                <mxCell id="33" value="" style="edgeStyle=none;html=1;fontFamily=Helvetica;fontSize=12;fontColor=#FFFFFF;startArrow=none;startFill=0;endArrow=classic;endFill=1;entryX=1;entryY=0.5;entryDx=0;entryDy=0;sketch=1;" edge="1" parent="39" source="23" target="32">
                    <mxGeometry relative="1" as="geometry">
                        <mxPoint x="141.70454545454544" y="755" as="targetPoint"/>
                    </mxGeometry>
                </mxCell>
                <mxCell id="41" value="&lt;div style=&quot;color: rgb(212 , 212 , 212) ; background-color: rgb(30 , 30 , 30) ; font-family: &amp;#34;menlo&amp;#34; , &amp;#34;monaco&amp;#34; , &amp;#34;courier new&amp;#34; , monospace ; line-height: 18px ; font-size: 20px&quot;&gt;&lt;font style=&quot;font-size: 20px&quot;&gt;&lt;span style=&quot;color: rgb(79 , 193 , 255)&quot;&gt;compiler&lt;/span&gt;.&lt;span style=&quot;color: rgb(220 , 220 , 170)&quot;&gt;run()&lt;/span&gt;&lt;/font&gt;&lt;/div&gt;&lt;div style=&quot;color: rgb(212 , 212 , 212) ; background-color: rgb(30 , 30 , 30) ; font-family: &amp;#34;menlo&amp;#34; , &amp;#34;monaco&amp;#34; , &amp;#34;courier new&amp;#34; , monospace ; line-height: 18px ; font-size: 20px&quot;&gt;&lt;font style=&quot;font-size: 20px&quot;&gt;&lt;span style=&quot;color: rgb(220 , 220 , 170)&quot;&gt;&lt;br&gt;&lt;/span&gt;&lt;/font&gt;&lt;/div&gt;&lt;div style=&quot;color: rgb(212 , 212 , 212) ; background-color: rgb(30 , 30 , 30) ; font-family: &amp;#34;menlo&amp;#34; , &amp;#34;monaco&amp;#34; , &amp;#34;courier new&amp;#34; , monospace ; line-height: 18px ; font-size: 20px&quot;&gt;&lt;span style=&quot;color: rgb(79 , 193 , 255)&quot;&gt;compiler&lt;/span&gt;.watch&lt;span style=&quot;color: rgb(220 , 220 , 170)&quot;&gt;()&lt;/span&gt;&lt;span style=&quot;color: #dcdcaa&quot;&gt;&lt;br&gt;&lt;/span&gt;&lt;/div&gt;" style="rounded=1;whiteSpace=wrap;html=1;arcSize=11;sketch=1;" vertex="1" parent="1">
                    <mxGeometry x="1400" y="502.5" width="240" height="75" as="geometry"/>
                </mxCell>
                <mxCell id="42" style="edgeStyle=none;sketch=1;html=1;entryX=0;entryY=0.5;entryDx=0;entryDy=0;fontFamily=Helvetica;fontSize=12;fontColor=#FFFFFF;startArrow=none;startFill=0;endArrow=classic;endFill=1;" edge="1" parent="1" source="37" target="41">
                    <mxGeometry relative="1" as="geometry"/>
                </mxCell>
                <mxCell id="43" value="&lt;div style=&quot;color: rgb(212 , 212 , 212) ; background-color: rgb(30 , 30 , 30) ; font-family: &amp;#34;menlo&amp;#34; , &amp;#34;monaco&amp;#34; , &amp;#34;courier new&amp;#34; , monospace ; line-height: 18px ; font-size: 20px&quot;&gt;&lt;font style=&quot;font-size: 20px&quot;&gt;&lt;span style=&quot;color: rgb(79 , 193 , 255)&quot;&gt;compiler&lt;/span&gt;.&lt;span style=&quot;color: rgb(220 , 220 , 170)&quot;&gt;run()&lt;/span&gt;&lt;/font&gt;&lt;/div&gt;&lt;div style=&quot;color: rgb(212 , 212 , 212) ; background-color: rgb(30 , 30 , 30) ; font-family: &amp;#34;menlo&amp;#34; , &amp;#34;monaco&amp;#34; , &amp;#34;courier new&amp;#34; , monospace ; line-height: 18px ; font-size: 20px&quot;&gt;&lt;span style=&quot;color: rgb(79 , 193 , 255)&quot;&gt;compiler&lt;/span&gt;.watch&lt;span style=&quot;color: rgb(220 , 220 , 170)&quot;&gt;()&lt;/span&gt;&lt;span style=&quot;color: #dcdcaa&quot;&gt;&lt;br&gt;&lt;/span&gt;&lt;/div&gt;" style="rounded=1;whiteSpace=wrap;html=1;arcSize=11;sketch=1;" vertex="1" parent="1">
                    <mxGeometry x="1740" y="502.5" width="240" height="75" as="geometry"/>
                </mxCell>
            </root>
        </mxGraphModel>
    </diagram>
</mxfile>